<svg width="18" height="18" viewBox="0 0 18 18" fill="none" xmlns="http://www.w3.org/2000/svg">
<path d="M16.7951 1.20496C16.4909 0.900513 16.1297 0.659 15.7322 0.494221C15.3346 0.329443 14.9085 0.244629 14.4782 0.244629C14.0478 0.244629 13.6217 0.329443 13.2242 0.494221C12.8266 0.659 12.4655 0.900513 12.1613 1.20496L2.32131 11.045C1.85421 11.5128 1.52099 12.0972 1.35631 12.7375L0.268805 16.97C0.241837 17.0753 0.242803 17.1858 0.271607 17.2906C0.300411 17.3954 0.356058 17.4909 0.433052 17.5677C0.510047 17.6444 0.605726 17.6997 0.710643 17.7282C0.815559 17.7567 0.926085 17.7573 1.03131 17.73L5.26256 16.6437C5.90303 16.4796 6.4876 16.1463 6.95506 15.6787L16.7951 5.83871C17.0995 5.53455 17.341 5.17338 17.5058 4.77584C17.6706 4.37829 17.7554 3.95217 17.7554 3.52183C17.7554 3.09149 17.6706 2.66537 17.5058 2.26782C17.341 1.87028 17.0995 1.50911 16.7951 1.20496ZM13.0451 2.0887C13.4251 1.70862 13.9407 1.49509 14.4782 1.49509C15.0157 1.49509 15.5312 1.70862 15.9113 2.0887C16.2914 2.46879 16.5049 2.9843 16.5049 3.52183C16.5049 4.05936 16.2914 4.57487 15.9113 4.95496L14.9376 5.92871L12.0713 3.06246L13.0451 2.0887ZM11.1876 3.9462L14.0538 6.81246L6.07131 14.795C5.76193 15.1041 5.37507 15.3243 4.95131 15.4325L1.74256 16.2575L2.56756 13.0487C2.67515 12.6247 2.89543 12.2377 3.20506 11.9287L11.1876 3.9462Z" fill="#464C64"/>
</svg>
