<svg width="51" height="50" viewBox="0 0 51 50" fill="none" xmlns="http://www.w3.org/2000/svg">
<rect x="0.5" width="50" height="50" rx="25" fill="#CA3636"/>
<path d="M31.3818 26.8664L31.3965 26.9536C31.5684 27.9709 31.6543 28.4797 31.9213 28.8907C32.0008 29.0129 32.0914 29.1277 32.1919 29.2331C32.5299 29.5879 33.0043 29.7884 33.9534 30.1897C35.3794 30.7925 36.0924 31.094 36.7764 30.974C36.9772 30.9388 37.1727 30.8776 37.3579 30.7919C37.9884 30.5003 38.4075 29.8388 39.2455 28.516C40.1197 27.1364 40.5567 26.4466 40.4941 25.6594C40.48 25.4828 40.4341 25.2592 40.3776 25.0915C40.1256 24.3431 39.5329 23.9371 38.3479 23.1247C30.3252 17.6251 20.6748 17.6251 12.6521 23.1247C11.467 23.9371 10.8745 24.3431 10.6223 25.0915C10.5658 25.2592 10.5199 25.4828 10.5059 25.6594C10.4433 26.4466 10.8803 27.1364 11.7544 28.516C12.5926 29.8388 13.0116 30.5003 13.6421 30.7919C13.8272 30.8776 14.0227 30.9388 14.2235 30.974C14.9075 31.094 15.6206 30.7925 17.0466 30.1897C17.9956 29.7884 18.47 29.5879 18.808 29.2331C18.9086 29.1277 18.9992 29.0129 19.0786 28.8907C19.3457 28.4797 19.4316 27.9709 19.6035 26.9536L19.6182 26.8664C19.7957 25.8163 19.8844 25.2911 20.2735 24.8096C20.3279 24.7423 20.427 24.6353 20.49 24.5759C20.9403 24.1513 21.3377 24.0529 22.1324 23.8562C24.2728 23.3263 26.7271 23.3263 28.8676 23.8562C29.6623 24.0529 30.0597 24.1513 30.51 24.5759C30.573 24.6353 30.672 24.7423 30.7264 24.8096C31.1155 25.2911 31.2043 25.8163 31.3818 26.8664Z" stroke="#FEFEFE" stroke-width="1.5" stroke-linecap="square" stroke-linejoin="round"/>
</svg>
