<svg width="13" height="18" viewBox="0 0 13 18" fill="none" xmlns="http://www.w3.org/2000/svg">
<path d="M11.2679 0.0528946C11.1017 0.0986328 10.4243 0.643965 5.99348 4.29945C1.32835 8.14493 0.90657 8.50379 0.829882 8.67618C0.723373 8.91191 0.723373 9.08782 0.829882 9.32355C0.90657 9.49594 1.32835 9.8548 5.99348 13.7003C10.8546 17.7111 11.0847 17.8976 11.3062 17.9539C12.2179 18.1966 13.0444 17.4367 12.6482 16.7154C12.6014 16.6275 11.0421 15.3152 7.99161 12.7926L3.40742 8.99986L7.99161 5.21068C10.9781 2.73734 12.6014 1.37225 12.6482 1.28781C12.9081 0.812841 12.6312 0.24288 12.0518 0.063448C11.7791 -0.0174713 11.5363 -0.0209885 11.2679 0.0528946Z" fill="#464C64"/>
</svg>
