<svg width="33" height="32" viewBox="0 0 33 32" fill="none" xmlns="http://www.w3.org/2000/svg">
<path d="M5.83333 18.6667H9.02642C9.41862 18.6667 9.80543 18.7551 10.1562 18.9249L12.8789 20.2422C13.2296 20.4119 13.6165 20.5002 14.0087 20.5002H15.3988C16.7433 20.5002 17.8333 21.555 17.8333 22.8561C17.8333 22.9086 17.7973 22.9549 17.7451 22.9693L14.3572 23.9061C13.7494 24.0741 13.0987 24.0155 12.5333 23.7419L9.62281 22.3338" stroke="#FEFEFE" stroke-width="2" stroke-linecap="round" stroke-linejoin="round"/>
<path d="M17.8333 22L23.9571 20.1186C25.0427 19.7803 26.2161 20.1814 26.8961 21.1231C27.3879 21.8039 27.1876 22.779 26.4713 23.1923L16.4505 28.974C15.8132 29.3418 15.0612 29.4315 14.3603 29.2235L5.83333 26.6932" stroke="#FEFEFE" stroke-width="2" stroke-linecap="round" stroke-linejoin="round"/>
<path d="M23.6059 6.00064C25.4465 9.18872 24.3541 13.2653 21.1661 15.1059C17.978 16.9466 13.9015 15.8542 12.0608 12.6662M23.6059 6.00064C21.7652 2.81255 17.6887 1.72023 14.5005 3.56088C11.3125 5.40152 10.2201 9.47811 12.0608 12.6662M23.6059 6.00064L12.0608 12.6662" stroke="#FEFEFE" stroke-width="2"/>
</svg>
