<svg width="250" height="250" viewBox="0 0 250 250" fill="none" xmlns="http://www.w3.org/2000/svg">
<circle cx="53.75" cy="30" r="6.25" fill="#C6CADC"/>
<circle cx="32.5" cy="50" r="6.25" fill="#61A3AA"/>
<circle cx="53.75" cy="67.5" r="6.25" fill="#C6CADC"/>
<circle cx="66.25" cy="56.25" r="6.25" fill="#C39BD3"/>
<circle cx="13.75" cy="83.75" r="6.25" fill="#61A3AA"/>
<circle cx="26.25" cy="73.75" r="6.25" fill="#C6CADC"/>
<circle cx="32.5" cy="96.25" r="6.25" fill="#8783F8"/>
<circle cx="53.75" cy="86.25" r="6.25" fill="#C39BD3"/>
<circle cx="72.5" cy="80" r="6.25" fill="#8783F8"/>
<circle cx="72.5" cy="36.25" r="6.25" fill="#C6CADC"/>
<circle cx="90" cy="12.5" r="6.25" fill="#C39BD3"/>
<circle cx="138.75" cy="55" r="6.25" fill="#FF9DA7"/>
<circle cx="58.75" cy="110" r="6.25" fill="#C6CADC"/>
<circle cx="140" cy="147.5" r="6.25" fill="#FF9DA7"/>
<circle cx="150" cy="187.5" r="6.25" fill="#C6CADC"/>
<circle cx="150" cy="93.75" r="6.25" fill="#C39BD3"/>
<circle cx="38.75" cy="166.25" r="6.25" fill="#C6CADC"/>
<circle cx="7.5" cy="110" r="6.25" fill="#FF9DA7"/>
<circle cx="108.75" cy="23.75" r="6.25" fill="#C6CADC"/>
<circle cx="157.5" cy="67.5" r="6.25" fill="#C6CADC"/>
<circle cx="77.5" cy="122.5" r="6.25" fill="#C6CADC"/>
<circle cx="158.75" cy="160" r="6.25" fill="#C6CADC"/>
<circle cx="168.75" cy="200" r="6.25" fill="#C39BD3"/>
<circle cx="168.75" cy="106.25" r="6.25" fill="#C6CADC"/>
<circle cx="57.5" cy="178.75" r="6.25" fill="#C6CADC"/>
<circle cx="17.5" cy="171.25" r="6.25" fill="#C6CADC"/>
<circle cx="190" cy="140" r="6.25" fill="#C6CADC"/>
<circle cx="168.75" cy="192.5" r="6.25" fill="#C6CADC"/>
<circle cx="111.25" cy="223.75" r="6.25" fill="#C6CADC"/>
<circle cx="65" cy="225" r="6.25" fill="#C39BD3"/>
<circle cx="26.25" cy="122.5" r="6.25" fill="#C6CADC"/>
<circle cx="90" cy="42.5" r="6.25" fill="#C6CADC"/>
<circle cx="138.75" cy="86.25" r="6.25" fill="#C6CADC"/>
<circle cx="58.75" cy="141.25" r="6.25" fill="#C6CADC"/>
<circle cx="140" cy="178.75" r="6.25" fill="#C6CADC"/>
<circle cx="150" cy="218.75" r="6.25" fill="#C6CADC"/>
<circle cx="156.25" cy="238.75" r="6.25" fill="#C6CADC"/>
<circle cx="150" cy="125" r="6.25" fill="#C6CADC"/>
<circle cx="38.75" cy="197.5" r="6.25" fill="#61A3AA"/>
<circle cx="7.5" cy="141.25" r="6.25" fill="#61A3AA"/>
<circle cx="108.75" cy="56.25" r="6.25" fill="#8783F8"/>
<circle cx="157.5" cy="100" r="6.25" fill="#C6CADC"/>
<circle cx="77.5" cy="155" r="6.25" fill="#8783F8"/>
<circle cx="37.5" cy="147.5" r="6.25" fill="#C6CADC"/>
<circle cx="210" cy="116.25" r="6.25" fill="#C6CADC"/>
<circle cx="188.75" cy="168.75" r="6.25" fill="#C6CADC"/>
<circle cx="131.25" cy="200" r="6.25" fill="#C6CADC"/>
<circle cx="87.5" cy="195" r="6.25" fill="#8783F8"/>
<circle cx="47.5" cy="187.5" r="6.25" fill="#C6CADC"/>
<circle cx="220" cy="156.25" r="6.25" fill="#C6CADC"/>
<circle cx="198.75" cy="208.75" r="6.25" fill="#C6CADC"/>
<circle cx="141.25" cy="240" r="6.25" fill="#C6CADC"/>
<circle cx="158.75" cy="192.5" r="6.25" fill="#8783F8"/>
<circle cx="168.75" cy="232.5" r="6.25" fill="#61A3AA"/>
<circle cx="168.75" cy="138.75" r="6.25" fill="#8783F8"/>
<circle cx="48.75" cy="212.5" r="6.25" fill="#C6CADC"/>
<circle cx="26.25" cy="155" r="6.25" fill="#C39BD3"/>
<circle cx="126.25" cy="37.5" r="6.25" fill="#8783F8"/>
<circle cx="175" cy="81.25" r="6.25" fill="#8783F8"/>
<circle cx="95" cy="136.25" r="6.25" fill="#C6CADC"/>
<circle cx="176.25" cy="173.75" r="6.25" fill="#C39BD3"/>
<circle cx="186.25" cy="213.75" r="6.25" fill="#C6CADC"/>
<circle cx="186.25" cy="120" r="6.25" fill="#C6CADC"/>
<circle cx="75" cy="192.5" r="6.25" fill="#C6CADC"/>
<circle cx="35" cy="185" r="6.25" fill="#C6CADC"/>
<circle cx="207.5" cy="153.75" r="6.25" fill="#C6CADC"/>
<circle cx="186.25" cy="206.25" r="6.25" fill="#C6CADC"/>
<circle cx="128.75" cy="237.5" r="6.25" fill="#C6CADC"/>
<circle cx="85" cy="232.5" r="6.25" fill="#C6CADC"/>
<circle cx="43.75" cy="136.25" r="6.25" fill="#8783F8"/>
<circle cx="118.75" cy="7.5" r="6.25" fill="#FF9DA7"/>
<circle cx="147.5" cy="11.25" r="6.25" fill="#8783F8"/>
<circle cx="196.25" cy="55" r="6.25" fill="#C6CADC"/>
<circle cx="116.25" cy="110" r="6.25" fill="#C6CADC"/>
<circle cx="197.5" cy="147.5" r="6.25" fill="#C6CADC"/>
<circle cx="207.5" cy="93.75" r="6.25" fill="#C6CADC"/>
<circle cx="96.25" cy="166.25" r="6.25" fill="#C6CADC"/>
<circle cx="56.25" cy="158.75" r="6.25" fill="#C6CADC"/>
<circle cx="228.75" cy="127.5" r="6.25" fill="#C6CADC"/>
<circle cx="207.5" cy="180" r="6.25" fill="#C6CADC"/>
<circle cx="150" cy="211.25" r="6.25" fill="#C39BD3"/>
<circle cx="106.25" cy="206.25" r="6.25" fill="#C39BD3"/>
<circle cx="65" cy="110" r="6.25" fill="#FF9DA7"/>
<circle cx="176.25" cy="18.75" r="6.25" fill="#C6CADC"/>
<circle cx="225" cy="62.5" r="6.25" fill="#C6CADC"/>
<circle cx="145" cy="117.5" r="6.25" fill="#C6CADC"/>
<circle cx="226.25" cy="155" r="6.25" fill="#61A3AA"/>
<circle cx="236.25" cy="101.25" r="6.25" fill="#61A3AA"/>
<circle cx="125" cy="173.75" r="6.25" fill="#C6CADC"/>
<circle cx="135" cy="213.75" r="6.25" fill="#C6CADC"/>
<circle cx="93.75" cy="117.5" r="6.25" fill="#C6CADC"/>
<circle cx="160" cy="25" r="6.25" fill="#61A3AA"/>
<circle cx="208.75" cy="68.75" r="6.25" fill="#C39BD3"/>
<circle cx="128.75" cy="123.75" r="6.25" fill="#8783F8"/>
<circle cx="210" cy="161.25" r="6.25" fill="#C6CADC"/>
<circle cx="220" cy="107.5" r="6.25" fill="#C6CADC"/>
<circle cx="108.75" cy="180" r="6.25" fill="#FF9DA7"/>
<circle cx="68.75" cy="172.5" r="6.25" fill="#FF9DA7"/>
<circle cx="241.25" cy="141.25" r="6.25" fill="#FF9DA7"/>
<circle cx="220" cy="193.75" r="6.25" fill="#C6CADC"/>
<circle cx="162.5" cy="225" r="6.25" fill="#C6CADC"/>
<circle cx="118.75" cy="220" r="6.25" fill="#C6CADC"/>
<circle cx="125" cy="240" r="6.25" fill="#FF9DA7"/>
<circle cx="77.5" cy="123.75" r="6.25" fill="#C6CADC"/>
<circle cx="135" cy="23.75" r="6.25" fill="#C6CADC"/>
<circle cx="183.75" cy="67.5" r="6.25" fill="#C6CADC"/>
<circle cx="103.75" cy="122.5" r="6.25" fill="#C39BD3"/>
<circle cx="185" cy="160" r="6.25" fill="#C6CADC"/>
<circle cx="195" cy="200" r="6.25" fill="#C6CADC"/>
<circle cx="195" cy="106.25" r="6.25" fill="#FF9DA7"/>
<circle cx="83.75" cy="178.75" r="6.25" fill="#C6CADC"/>
<circle cx="43.75" cy="171.25" r="6.25" fill="#C6CADC"/>
<circle cx="216.25" cy="140" r="6.25" fill="#C6CADC"/>
<circle cx="195" cy="192.5" r="6.25" fill="#8783F8"/>
<circle cx="137.5" cy="223.75" r="6.25" fill="#C6CADC"/>
<circle cx="93.75" cy="218.75" r="6.25" fill="#C6CADC"/>
<circle cx="100" cy="238.75" r="6.25" fill="#61A3AA"/>
<circle cx="52.5" cy="122.5" r="6.25" fill="#C6CADC"/>
</svg>