<svg width="100" height="100" viewBox="0 0 100 100" fill="none" xmlns="http://www.w3.org/2000/svg">
<path d="M50 100C77.6142 100 100 77.6142 100 50C100 22.3858 77.6142 0 50 0C22.3858 0 0 22.3858 0 50C0 77.6142 22.3858 100 50 100Z" fill="#8E44AD"/>
<path fill-rule="evenodd" clip-rule="evenodd" d="M65.0232 97.6767C66.5313 97.2076 68.0163 96.6672 69.4732 96.0575C71.0087 95.4061 72.5105 94.6783 73.9732 93.8767C75.4352 93.0765 76.8562 92.2036 78.2309 91.2614C79.6073 90.3219 80.9359 89.3142 82.2117 88.2421C83.487 87.1679 84.7077 86.0306 85.8694 84.8344C87.0314 83.6377 88.1328 82.3836 89.1694 81.0767C90.2045 79.7708 91.1736 78.414 92.0732 77.0114C92.9745 75.6089 93.805 74.1622 94.5617 72.6767C95.318 71.1925 95.9996 69.6714 96.604 68.119C96.9846 67.0859 97.3309 66.0405 97.6425 64.9844L66.3232 33.6767C64.1818 31.5308 61.6373 29.8293 58.836 28.6702C56.0346 27.5111 53.0318 26.9173 50.0002 26.9229C46.9681 26.9188 43.9651 27.5129 41.163 28.6711C38.361 29.8293 35.8149 31.5289 33.6706 33.6725C31.5262 35.8161 29.8258 38.3616 28.6667 41.1633C27.5076 43.965 26.9125 46.9678 26.9155 49.9998C26.9155 52.3921 27.2809 54.696 27.954 56.8652V56.8729C28.4002 58.3152 28.9886 59.6998 29.6963 61.0037V61.0114C30.7578 62.9729 32.104 64.7614 33.6694 66.3229L65.0232 97.6767Z" fill="#5A2B6E"/>
<path fill-rule="evenodd" clip-rule="evenodd" d="M50.0039 26.9229C62.7732 26.9229 73.0809 37.2305 73.0809 49.9998C73.0809 62.769 62.7732 73.0767 50.0039 73.0767C46.9719 73.0807 43.9689 72.4867 41.1668 71.3285C38.3647 70.1703 35.8187 68.4707 33.6743 66.3271C31.53 64.1835 29.8296 61.638 28.6705 58.8363C27.5114 56.0346 26.9163 53.0318 26.9193 49.9998C26.9193 37.2305 37.2347 26.9229 50.0039 26.9229ZM49.9501 34.6305C49.6975 34.6346 49.4483 34.6883 49.2165 34.7886C48.9847 34.889 48.7749 35.034 48.5992 35.2155C48.4235 35.3969 48.2852 35.6112 48.1923 35.8461C48.0994 36.081 48.0537 36.3318 48.0578 36.5844L48.0809 48.0921L36.5578 48.1152C33.9886 48.119 33.9962 51.9729 36.5655 51.969L48.0809 51.9459L48.1039 63.4613C48.0655 66.0613 51.9886 66.0613 51.9501 63.4613L51.9347 51.9382L63.4424 51.9152C66.0424 51.9459 66.0347 48.0305 63.4347 48.069L51.927 48.0921L51.9116 36.5844C51.9148 36.3266 51.8661 36.0709 51.7684 35.8323C51.6708 35.5938 51.5261 35.3773 51.3432 35.1958C51.1602 35.0142 50.9426 34.8713 50.7032 34.7755C50.4639 34.6798 50.2078 34.6331 49.9501 34.6382V34.6305Z" fill="white"/>
</svg>
