<svg width="31" height="30" viewBox="0 0 31 30" fill="none" xmlns="http://www.w3.org/2000/svg">
<path d="M19.1579 5.51379L10.8419 9.50565C10.2019 9.81286 9.51804 9.88984 8.82094 9.73366C8.36471 9.63146 8.13657 9.58036 7.95287 9.55939C5.67179 9.2989 4.25 11.1043 4.25 13.1804V14.3196C4.25 16.3957 5.67179 18.2011 7.95287 17.9406C8.13657 17.9196 8.36473 17.8685 8.82094 17.7664C9.51804 17.6101 10.2019 17.6871 10.8419 17.9944L19.1579 21.9862C21.0668 22.9026 22.0212 23.3607 23.0855 23.0036C24.1496 22.6465 24.5149 21.8801 25.2455 20.3475C27.2515 16.139 27.2515 11.3611 25.2455 7.15245C24.5149 5.61982 24.1496 4.85351 23.0855 4.49637C22.0212 4.13925 21.0668 4.59742 19.1579 5.51379Z" stroke="#FEFEFE" stroke-width="1.5" stroke-linecap="round" stroke-linejoin="round"/>
<path d="M16.75 21.25V21.875C16.75 23.4801 16.75 24.2826 16.47 24.7358C16.0966 25.3399 15.414 25.6813 14.7066 25.6174C14.1761 25.5696 13.5341 25.088 12.25 24.125L10.75 23C9.52816 22.0836 9.25 21.5272 9.25 20V18.125" stroke="#FEFEFE" stroke-width="1.5" stroke-linecap="round" stroke-linejoin="round"/>
<path d="M9.875 17.5V10" stroke="#FEFEFE" stroke-width="1.5" stroke-linecap="round" stroke-linejoin="round"/>
</svg>
