<svg width="16" height="16" viewBox="0 0 16 16" fill="none" xmlns="http://www.w3.org/2000/svg">
<path d="M5.33333 9.00008H10.6667M5.33333 5.66675H8" stroke="#212028" stroke-linecap="round" stroke-linejoin="round"/>
<path d="M4.06587 12.6667C3.19913 12.5815 2.54983 12.3211 2.11438 11.8857C1.33333 11.1047 1.33333 9.84755 1.33333 7.33341V7.00008C1.33333 4.48592 1.33333 3.22885 2.11438 2.44779C2.89543 1.66675 4.15251 1.66675 6.66667 1.66675H9.33333C11.8475 1.66675 13.1046 1.66675 13.8856 2.44779C14.6667 3.22885 14.6667 4.48592 14.6667 7.00008V7.33341C14.6667 9.84755 14.6667 11.1047 13.8856 11.8857C13.1046 12.6667 11.8475 12.6667 9.33333 12.6667C8.95967 12.6751 8.66207 12.7035 8.36973 12.7701C7.5708 12.954 6.831 13.3628 6.09991 13.7193C5.05819 14.2273 4.53733 14.4813 4.21046 14.2435C3.58513 13.7777 4.19636 12.3347 4.33333 11.6667" stroke="#212028" stroke-linecap="round"/>
</svg>
