<svg width="48" height="61" viewBox="0 0 48 61" fill="none" xmlns="http://www.w3.org/2000/svg">
<path d="M23.875 49.125C18.0734 49.125 12.5094 46.8203 8.40704 42.718C4.30468 38.6156 2 33.0516 2 27.25V24.125M23.875 49.125C29.6766 49.125 35.2406 46.8203 39.343 42.718C43.4453 38.6156 45.75 33.0516 45.75 27.25V24.125M23.875 49.125V58.5M14.5 11.625C14.5 9.1386 15.4877 6.75403 17.2459 4.99587C19.004 3.23772 21.3886 2.25 23.875 2.25C26.3614 2.25 28.746 3.23772 30.5041 4.99587C32.2623 6.75403 33.25 9.1386 33.25 11.625V27.25C33.25 29.7364 32.2623 32.121 30.5041 33.8791C28.746 35.6373 26.3614 36.625 23.875 36.625C21.3886 36.625 19.004 35.6373 17.2459 33.8791C15.4877 32.121 14.5 29.7364 14.5 27.25V11.625Z" stroke="#F8F9FF" stroke-width="4" stroke-linecap="round" stroke-linejoin="round"/>
</svg>
