<svg width="40" height="40" viewBox="0 0 40 40" fill="none" xmlns="http://www.w3.org/2000/svg">
<g clip-path="url(#clip0_198_291)">
<path d="M20 39.4141C30.7221 39.4141 39.4141 30.7221 39.4141 20C39.4141 9.27791 30.7221 0.585938 20 0.585938C9.27791 0.585938 0.585938 9.27791 0.585938 20C0.585938 30.7221 9.27791 39.4141 20 39.4141Z" fill="#FED402"/>
<path d="M20 36.2891C28.9962 36.2891 36.2891 28.9962 36.2891 20C36.2891 11.0038 28.9962 3.71094 20 3.71094C11.0038 3.71094 3.71094 11.0038 3.71094 20C3.71094 28.9962 11.0038 36.2891 20 36.2891Z" fill="#FAC600"/>
<path d="M20 3.71094C19.4128 3.71108 18.826 3.74289 18.2422 3.80625C26.4 4.6875 32.7734 11.6117 32.7734 20C32.7734 28.3883 26.4 35.3125 18.2422 36.1937C18.826 36.2571 19.4128 36.2889 20 36.2891C28.9844 36.2891 36.2891 28.9844 36.2891 20C36.2891 11.0156 28.9844 3.71094 20 3.71094Z" fill="#E8B800"/>
<path d="M27.9857 26.5578C27.5701 27.3313 26.8998 27.832 26.2467 27.7922C25.1193 27.7227 24.6435 26.0781 24.5802 25.8586C24.0201 23.9227 25.1123 21.1961 26.9302 20.8391C27.7115 20.6828 28.6435 20.9813 29.267 21.632C30.2248 22.632 29.9841 23.9758 29.9584 24.1055C31.5427 22.8336 32.0584 20.6594 31.2326 18.8875C30.2412 16.7586 27.699 16.4008 26.2506 16.5625C24.3599 16.7727 23.1724 17.9985 22.9795 18.2031C21.1045 20.1938 21.4802 22.9961 21.981 26.7531C22.1927 28.3367 22.4498 28.9867 22.9623 29.5039C24.0131 30.5656 26.2373 31.1758 27.4787 29.9508C28.2818 29.1594 28.4662 27.8063 27.9857 26.5578ZM14.3591 26.5578C14.7748 27.3313 15.4451 27.832 16.0982 27.7922C17.2256 27.7227 17.7013 26.0781 17.7646 25.8586C18.3248 23.9227 17.2326 21.1961 15.4146 20.8391C14.6334 20.6828 13.7013 20.9813 13.0779 21.632C12.1201 22.632 12.3607 23.9758 12.3865 24.1055C10.8021 22.8336 10.2865 20.6594 11.1123 18.8875C12.1037 16.7586 14.6459 16.4008 16.0943 16.5625C17.9849 16.7727 19.1724 17.9985 19.3654 18.2031C21.2404 20.1938 20.8646 22.9961 20.3638 26.7531C20.1521 28.3367 19.8951 28.9867 19.3826 29.5039C18.3318 30.5656 16.1076 31.1758 14.8662 29.9508C14.0631 29.1594 13.8787 27.8063 14.3591 26.5578Z" fill="#E8B800"/>
<path d="M22.5779 24.1203H19.7654L18.967 19.8672C18.6608 18.24 18.5067 16.5878 18.5068 14.932C18.5069 14.05 18.7573 13.186 19.2291 12.4407C19.7008 11.6954 20.3745 11.0994 21.1717 10.7219C21.9689 11.0994 22.6425 11.6954 23.1143 12.4407C23.586 13.186 23.8365 14.05 23.8365 14.932C23.8366 16.5878 23.6826 18.24 23.3764 19.8672L22.5779 24.1203ZM22.4811 30.1789L21.1717 31.6219L19.8623 30.1789C19.5688 29.8558 19.3732 29.4559 19.2981 29.0259C19.223 28.5959 19.2715 28.1535 19.4381 27.75L20.1412 26.0422H22.199L22.9021 27.75C23.0691 28.1532 23.1182 28.5955 23.0436 29.0255C22.9691 29.4555 22.774 29.8554 22.4811 30.1789Z" fill="#E8B800"/>
<path d="M23.4221 23.4633H18.9221C18.1674 23.4633 17.5557 24.075 17.5557 24.8297V24.8304C17.5557 25.5851 18.1674 26.1969 18.9221 26.1969H23.4221C24.1767 26.1969 24.7885 25.5851 24.7885 24.8304V24.8297C24.7885 24.075 24.1767 23.4633 23.4221 23.4633Z" fill="#E8B800"/>
<path d="M26.8138 25.386C26.3982 26.1594 25.7279 26.6602 25.0748 26.6203C23.9474 26.5508 23.4716 24.9063 23.4084 24.6867C22.8482 22.7508 23.9404 20.0242 25.7584 19.6672C26.5396 19.511 27.4716 19.8094 28.0951 20.4602C29.0529 21.4602 28.8123 22.8039 28.7865 22.9336C30.3709 21.6617 30.8865 19.4875 30.0607 17.7156C29.0693 15.5867 26.5271 15.2289 25.0787 15.3906C23.1881 15.6008 22.0006 16.8266 21.8076 17.0313C19.9326 19.0219 20.3084 21.8242 20.8091 25.5813C21.0209 27.1649 21.2779 27.8149 21.7904 28.332C22.8412 29.3938 25.0654 30.0039 26.3068 28.7789C27.1099 27.9875 27.2943 26.6344 26.8138 25.386ZM13.1873 25.386C13.6029 26.1594 14.2732 26.6602 14.9263 26.6203C16.0537 26.5508 16.5295 24.9063 16.5927 24.6867C17.1529 22.7508 16.0607 20.0242 14.2427 19.6672C13.4615 19.511 12.5295 19.8094 11.906 20.4602C10.9482 21.4602 11.1888 22.8039 11.2146 22.9336C9.63024 21.6617 9.11462 19.4875 9.9404 17.7156C10.9318 15.5867 13.474 15.2289 14.9224 15.3906C16.8131 15.6008 18.0006 16.8266 18.1935 17.0313C20.0685 19.0219 19.6927 21.8242 19.192 25.5813C18.9802 27.1649 18.7232 27.8149 18.2107 28.332C17.1599 29.3938 14.9357 30.0039 13.6943 28.7789C12.8912 27.9875 12.7068 26.6344 13.1873 25.386Z" fill="#E8EDF2"/>
<path d="M21.4061 22.9484H18.5936L17.7951 18.6953C17.4889 17.0681 17.3348 15.4159 17.335 13.7601C17.335 12.8781 17.5855 12.0142 18.0572 11.2689C18.529 10.5235 19.2026 9.92748 19.9998 9.54999C20.797 9.92748 21.4706 10.5235 21.9424 11.2689C22.4141 12.0142 22.6646 12.8781 22.6646 13.7601C22.6648 15.4159 22.5107 17.0681 22.2045 18.6953L21.4061 22.9484ZM21.3092 29.007L19.9998 30.45L18.6904 29.007C18.397 28.6839 18.2013 28.2841 18.1262 27.8541C18.0511 27.4241 18.0996 26.9816 18.2662 26.5781L18.9693 24.8703H21.0271L21.7303 26.5781C21.8972 26.9813 21.9463 27.4236 21.8718 27.8536C21.7972 28.2836 21.6021 28.6836 21.3092 29.007Z" fill="#F5F8F9"/>
<path d="M22.2502 22.2914H17.7502C16.9955 22.2914 16.3838 22.9031 16.3838 23.6578V23.6586C16.3838 24.4132 16.9955 25.025 17.7502 25.025H22.2502C23.0048 25.025 23.6166 24.4132 23.6166 23.6586V23.6578C23.6166 22.9031 23.0048 22.2914 22.2502 22.2914Z" fill="#D9E7EC"/>
</g>
<defs>
<clipPath id="clip0_198_291">
<rect width="40" height="40" fill="white"/>
</clipPath>
</defs>
</svg>
