<svg width="109" height="21" viewBox="0 0 109 21" fill="none" xmlns="http://www.w3.org/2000/svg">
<path d="M2.33691 2.52H3.58491L11.8649 14.808C13.2249 12.728 14.5929 10.672 15.9689 8.64C17.3609 6.608 18.7609 4.568 20.1689 2.52H21.4169V16.68H19.9289V5.544L12.4649 16.68H11.2889L3.82491 5.568V16.68H2.33691V2.52ZM5.14491 9.936L10.5449 18.024H13.1849L18.6089 9.912V18.024H22.7369V1.176H19.4249L11.8409 12.408L4.30491 1.176H1.01691V18.024H5.14491V9.936ZM6.96891 3.048L12.1769 10.848L19.1369 0.576H23.3369L25.6649 3.048V20.952H20.4809L18.0089 18.624V17.736L15.8489 20.952H12.6809L10.2569 18.624L8.07291 15.36V20.952H2.88891L0.416906 18.624V0.576H4.59291L6.96891 3.048ZM40.3507 15.216C41.2787 15.216 42.1427 15.12 42.9427 14.928C43.7587 14.72 44.4627 14.4 45.0547 13.968C45.6627 13.52 46.1347 12.944 46.4707 12.24C46.8067 11.52 46.9747 10.64 46.9747 9.6C46.9747 8.576 46.7987 7.704 46.4467 6.984C46.1107 6.264 45.6467 5.688 45.0547 5.256C44.4627 4.808 43.7587 4.488 42.9427 4.296C42.1427 4.088 41.2787 3.984 40.3507 3.984H37.7107C36.7667 3.984 35.8867 4.088 35.0707 4.296C34.2707 4.488 33.5747 4.808 32.9827 5.256C32.3907 5.688 31.9187 6.264 31.5667 6.984C31.2307 7.704 31.0627 8.576 31.0627 9.6C31.0627 10.64 31.2307 11.52 31.5667 12.24C31.9187 12.944 32.3907 13.52 32.9827 13.968C33.5747 14.416 34.2707 14.736 35.0707 14.928C35.8867 15.12 36.7667 15.216 37.7107 15.216H40.3507ZM37.7107 13.872C36.9907 13.872 36.3107 13.8 35.6707 13.656C35.0307 13.512 34.4707 13.28 33.9907 12.96C33.5107 12.624 33.1267 12.184 32.8387 11.64C32.5507 11.096 32.4067 10.416 32.4067 9.6C32.4067 8.8 32.5507 8.128 32.8387 7.584C33.1267 7.04 33.5107 6.6 33.9907 6.264C34.4867 5.928 35.0547 5.688 35.6947 5.544C36.3347 5.4 37.0067 5.328 37.7107 5.328H40.3507C41.0547 5.328 41.7267 5.4 42.3667 5.544C43.0067 5.688 43.5667 5.928 44.0467 6.264C44.5267 6.6 44.9107 7.04 45.1987 7.584C45.4867 8.128 45.6307 8.8 45.6307 9.6C45.6307 10.4 45.4867 11.072 45.1987 11.616C44.9267 12.16 44.5507 12.6 44.0707 12.936C43.5907 13.272 43.0307 13.512 42.3907 13.656C41.7507 13.8 41.0707 13.872 40.3507 13.872H37.7107ZM29.5507 9.6C29.5507 8.304 29.7507 7.208 30.1507 6.312C30.5667 5.416 31.1347 4.688 31.8547 4.128C32.5907 3.552 33.4547 3.144 34.4467 2.904C35.4547 2.648 36.5427 2.52 37.7107 2.52H40.3507C41.5187 2.52 42.5987 2.648 43.5907 2.904C44.5827 3.16 45.4387 3.568 46.1587 4.128C46.8947 4.688 47.4627 5.416 47.8627 6.312C48.2787 7.208 48.4867 8.304 48.4867 9.6C48.4867 10.896 48.2787 11.992 47.8627 12.888C47.4627 13.784 46.8947 14.512 46.1587 15.072C45.4387 15.632 44.5827 16.04 43.5907 16.296C42.5987 16.552 41.5187 16.68 40.3507 16.68H37.7107C36.5427 16.68 35.4547 16.56 34.4467 16.32C33.4547 16.064 32.5907 15.656 31.8547 15.096C31.1347 14.52 30.5667 13.784 30.1507 12.888C29.7507 11.992 29.5507 10.896 29.5507 9.6ZM28.2067 9.6C28.2067 11.12 28.4387 12.416 28.9027 13.488C29.3827 14.544 30.0387 15.408 30.8707 16.08C31.7187 16.752 32.7187 17.248 33.8707 17.568C35.0387 17.872 36.3187 18.024 37.7107 18.024H40.3507C41.7427 18.024 43.0147 17.872 44.1667 17.568C45.3187 17.248 46.3107 16.752 47.1427 16.08C47.9907 15.408 48.6467 14.544 49.1107 13.488C49.5747 12.416 49.8067 11.12 49.8067 9.6C49.8067 8.08 49.5747 6.792 49.1107 5.736C48.6467 4.664 47.9907 3.792 47.1427 3.12C46.3107 2.448 45.3187 1.96 44.1667 1.656C43.0147 1.336 41.7427 1.176 40.3507 1.176H37.7107C36.3187 1.176 35.0387 1.336 33.8707 1.656C32.7187 1.96 31.7187 2.448 30.8707 3.12C30.0387 3.792 29.3827 4.664 28.9027 5.736C28.4387 6.792 28.2067 8.08 28.2067 9.6ZM27.6067 9.6C27.6067 7.968 27.8547 6.584 28.3507 5.448C28.8467 4.296 29.5427 3.36 30.4387 2.64C31.3347 1.92 32.3987 1.4 33.6307 1.08C34.8787 0.743999 36.2387 0.576 37.7107 0.576H40.3507C41.2787 0.576 42.1507 0.631999 42.9667 0.743999C43.7987 0.839999 44.6147 1.056 45.4147 1.392C46.2147 1.712 47.0067 2.176 47.7907 2.784C48.5907 3.376 49.4147 4.176 50.2627 5.184C50.9827 5.904 51.5747 6.856 52.0387 8.04C52.5027 9.224 52.7347 10.544 52.7347 12C52.7347 13.616 52.4867 14.992 51.9907 16.128C51.5107 17.264 50.8227 18.184 49.9267 18.888C49.0467 19.608 47.9907 20.128 46.7587 20.448C45.5427 20.784 44.2067 20.952 42.7507 20.952H40.1107C38.4787 20.952 36.9587 20.768 35.5507 20.4C34.1427 20.032 32.9827 19.4 32.0707 18.504C31.1587 17.704 30.4147 16.952 29.8387 16.248C29.2627 15.528 28.8067 14.816 28.4707 14.112C28.1507 13.408 27.9267 12.688 27.7987 11.952C27.6707 11.216 27.6067 10.432 27.6067 9.6ZM40.3507 13.272C40.9747 13.272 41.5667 13.216 42.1267 13.104C42.7027 12.976 43.2067 12.768 43.6387 12.48C44.0707 12.192 44.4067 11.816 44.6467 11.352C44.9027 10.872 45.0307 10.288 45.0307 9.6C45.0307 9.216 44.9827 8.864 44.8867 8.544C44.2307 8.352 43.5187 8.256 42.7507 8.256H40.1107C39.4707 8.256 38.8627 8.32 38.2867 8.448C37.7107 8.576 37.1987 8.784 36.7507 9.072C36.3187 9.36 35.9747 9.744 35.7187 10.224C35.4627 10.704 35.3347 11.296 35.3347 12C35.3347 12.384 35.3667 12.704 35.4307 12.96C35.7667 13.072 36.1267 13.152 36.5107 13.2C36.8947 13.248 37.2947 13.272 37.7107 13.272H40.3507ZM57.4619 2.52H58.7099L66.9899 14.808C68.3499 12.728 69.7179 10.672 71.0939 8.64C72.4859 6.608 73.8859 4.568 75.2939 2.52H76.5419V16.68H75.0539V5.544L67.5899 16.68H66.4139L58.9499 5.568V16.68H57.4619V2.52ZM60.2699 9.936L65.6699 18.024H68.3099L73.7339 9.912V18.024H77.8619V1.176H74.5499L66.9659 12.408L59.4299 1.176H56.1419V18.024H60.2699V9.936ZM62.0939 3.048L67.3019 10.848L74.2619 0.576H78.4619L80.7899 3.048V20.952H75.6059L73.1339 18.624V17.736L70.9739 20.952H67.8059L65.3819 18.624L63.1979 15.36V20.952H58.0139L55.5419 18.624V0.576H59.7179L62.0939 3.048ZM95.9678 15.216C96.8958 15.216 97.7598 15.12 98.5598 14.928C99.3758 14.72 100.08 14.4 100.672 13.968C101.28 13.52 101.752 12.944 102.088 12.24C102.424 11.52 102.592 10.64 102.592 9.6C102.592 8.576 102.416 7.704 102.064 6.984C101.728 6.264 101.264 5.688 100.672 5.256C100.08 4.808 99.3758 4.488 98.5598 4.296C97.7598 4.088 96.8958 3.984 95.9678 3.984H93.3278C92.3838 3.984 91.5038 4.088 90.6878 4.296C89.8878 4.488 89.1918 4.808 88.5998 5.256C88.0078 5.688 87.5358 6.264 87.1838 6.984C86.8478 7.704 86.6798 8.576 86.6798 9.6C86.6798 10.64 86.8478 11.52 87.1838 12.24C87.5358 12.944 88.0078 13.52 88.5998 13.968C89.1918 14.416 89.8878 14.736 90.6878 14.928C91.5038 15.12 92.3838 15.216 93.3278 15.216H95.9678ZM93.3278 13.872C92.6078 13.872 91.9278 13.8 91.2878 13.656C90.6478 13.512 90.0878 13.28 89.6078 12.96C89.1278 12.624 88.7438 12.184 88.4558 11.64C88.1678 11.096 88.0238 10.416 88.0238 9.6C88.0238 8.8 88.1678 8.128 88.4558 7.584C88.7438 7.04 89.1278 6.6 89.6078 6.264C90.1038 5.928 90.6718 5.688 91.3118 5.544C91.9518 5.4 92.6238 5.328 93.3278 5.328H95.9678C96.6718 5.328 97.3438 5.4 97.9838 5.544C98.6238 5.688 99.1838 5.928 99.6638 6.264C100.144 6.6 100.528 7.04 100.816 7.584C101.104 8.128 101.248 8.8 101.248 9.6C101.248 10.4 101.104 11.072 100.816 11.616C100.544 12.16 100.168 12.6 99.6878 12.936C99.2078 13.272 98.6478 13.512 98.0078 13.656C97.3678 13.8 96.6878 13.872 95.9678 13.872H93.3278ZM85.1678 9.6C85.1678 8.304 85.3678 7.208 85.7678 6.312C86.1838 5.416 86.7518 4.688 87.4718 4.128C88.2078 3.552 89.0718 3.144 90.0638 2.904C91.0718 2.648 92.1598 2.52 93.3278 2.52H95.9678C97.1358 2.52 98.2158 2.648 99.2078 2.904C100.2 3.16 101.056 3.568 101.776 4.128C102.512 4.688 103.08 5.416 103.48 6.312C103.896 7.208 104.104 8.304 104.104 9.6C104.104 10.896 103.896 11.992 103.48 12.888C103.08 13.784 102.512 14.512 101.776 15.072C101.056 15.632 100.2 16.04 99.2078 16.296C98.2158 16.552 97.1358 16.68 95.9678 16.68H93.3278C92.1598 16.68 91.0718 16.56 90.0638 16.32C89.0718 16.064 88.2078 15.656 87.4718 15.096C86.7518 14.52 86.1838 13.784 85.7678 12.888C85.3678 11.992 85.1678 10.896 85.1678 9.6ZM83.8238 9.6C83.8238 11.12 84.0558 12.416 84.5198 13.488C84.9998 14.544 85.6558 15.408 86.4878 16.08C87.3358 16.752 88.3358 17.248 89.4878 17.568C90.6558 17.872 91.9358 18.024 93.3278 18.024H95.9678C97.3598 18.024 98.6318 17.872 99.7838 17.568C100.936 17.248 101.928 16.752 102.76 16.08C103.608 15.408 104.264 14.544 104.728 13.488C105.192 12.416 105.424 11.12 105.424 9.6C105.424 8.08 105.192 6.792 104.728 5.736C104.264 4.664 103.608 3.792 102.76 3.12C101.928 2.448 100.936 1.96 99.7838 1.656C98.6318 1.336 97.3598 1.176 95.9678 1.176H93.3278C91.9358 1.176 90.6558 1.336 89.4878 1.656C88.3358 1.96 87.3358 2.448 86.4878 3.12C85.6558 3.792 84.9998 4.664 84.5198 5.736C84.0558 6.792 83.8238 8.08 83.8238 9.6ZM83.2238 9.6C83.2238 7.968 83.4718 6.584 83.9678 5.448C84.4638 4.296 85.1598 3.36 86.0558 2.64C86.9518 1.92 88.0158 1.4 89.2478 1.08C90.4958 0.743999 91.8558 0.576 93.3278 0.576H95.9678C96.8958 0.576 97.7678 0.631999 98.5838 0.743999C99.4158 0.839999 100.232 1.056 101.032 1.392C101.832 1.712 102.624 2.176 103.408 2.784C104.208 3.376 105.032 4.176 105.88 5.184C106.6 5.904 107.192 6.856 107.656 8.04C108.12 9.224 108.352 10.544 108.352 12C108.352 13.616 108.104 14.992 107.608 16.128C107.128 17.264 106.44 18.184 105.544 18.888C104.664 19.608 103.608 20.128 102.376 20.448C101.16 20.784 99.8238 20.952 98.3678 20.952H95.7278C94.0958 20.952 92.5758 20.768 91.1678 20.4C89.7598 20.032 88.5998 19.4 87.6878 18.504C86.7758 17.704 86.0318 16.952 85.4558 16.248C84.8798 15.528 84.4238 14.816 84.0878 14.112C83.7678 13.408 83.5438 12.688 83.4158 11.952C83.2878 11.216 83.2238 10.432 83.2238 9.6ZM95.9678 13.272C96.5918 13.272 97.1838 13.216 97.7438 13.104C98.3198 12.976 98.8238 12.768 99.2558 12.48C99.6878 12.192 100.024 11.816 100.264 11.352C100.52 10.872 100.648 10.288 100.648 9.6C100.648 9.216 100.6 8.864 100.504 8.544C99.8478 8.352 99.1358 8.256 98.3678 8.256H95.7278C95.0878 8.256 94.4798 8.32 93.9038 8.448C93.3278 8.576 92.8158 8.784 92.3678 9.072C91.9358 9.36 91.5918 9.744 91.3358 10.224C91.0798 10.704 90.9518 11.296 90.9518 12C90.9518 12.384 90.9838 12.704 91.0478 12.96C91.3838 13.072 91.7438 13.152 92.1278 13.2C92.5118 13.248 92.9118 13.272 93.3278 13.272H95.9678Z" fill="#5A0D79"/>
</svg>
