<svg width="14" height="19" viewBox="0 0 14 19" fill="none" xmlns="http://www.w3.org/2000/svg">
<path d="M7.00016 14.1666C6.55814 14.1666 6.13421 13.9911 5.82165 13.6785C5.50909 13.3659 5.3335 12.942 5.3335 12.5C5.3335 11.575 6.07516 10.8333 7.00016 10.8333C7.44219 10.8333 7.86611 11.0089 8.17867 11.3215C8.49123 11.634 8.66683 12.058 8.66683 12.5C8.66683 12.942 8.49123 13.3659 8.17867 13.6785C7.86611 13.9911 7.44219 14.1666 7.00016 14.1666ZM12.0002 16.6666V8.33331H2.00016V16.6666H12.0002ZM12.0002 6.66665C12.4422 6.66665 12.8661 6.84224 13.1787 7.1548C13.4912 7.46736 13.6668 7.89129 13.6668 8.33331V16.6666C13.6668 17.1087 13.4912 17.5326 13.1787 17.8452C12.8661 18.1577 12.4422 18.3333 12.0002 18.3333H2.00016C1.55814 18.3333 1.13421 18.1577 0.821651 17.8452C0.509091 17.5326 0.333496 17.1087 0.333496 16.6666V8.33331C0.333496 7.40831 1.07516 6.66665 2.00016 6.66665H2.8335V4.99998C2.8335 3.89491 3.27248 2.8351 4.05388 2.0537C4.83529 1.2723 5.89509 0.833313 7.00016 0.833313C7.54734 0.833313 8.08915 0.941087 8.59468 1.15048C9.1002 1.35988 9.55953 1.66679 9.94644 2.0537C10.3334 2.44061 10.6403 2.89994 10.8497 3.40547C11.0591 3.91099 11.1668 4.45281 11.1668 4.99998V6.66665H12.0002ZM7.00016 2.49998C6.33712 2.49998 5.70124 2.76337 5.2324 3.23221C4.76355 3.70105 4.50016 4.33694 4.50016 4.99998V6.66665H9.50016V4.99998C9.50016 4.33694 9.23677 3.70105 8.76793 3.23221C8.29909 2.76337 7.6632 2.49998 7.00016 2.49998Z" fill="black"/>
</svg>
