<svg width="35" height="20" viewBox="0 0 35 20" fill="none" xmlns="http://www.w3.org/2000/svg">
<path d="M23.3818 11.8664L23.3965 11.9536C23.5684 12.9709 23.6543 13.4797 23.9213 13.8907C24.0008 14.0129 24.0914 14.1277 24.1919 14.2331C24.5299 14.5879 25.0043 14.7884 25.9534 15.1897C27.3794 15.7925 28.0924 16.094 28.7764 15.974C28.9772 15.9388 29.1727 15.8776 29.3579 15.7919C29.9884 15.5003 30.4075 14.8388 31.2455 13.516C32.1197 12.1364 32.5567 11.4466 32.4941 10.6594C32.48 10.4828 32.4341 10.2592 32.3776 10.0915C32.1256 9.34314 31.5329 8.93709 30.3479 8.12469C22.3252 2.6251 12.6748 2.6251 4.6521 8.12469C3.467 8.93709 2.87446 9.34314 2.62232 10.0915C2.56582 10.2592 2.51995 10.4828 2.50591 10.6594C2.44325 11.4466 2.88031 12.1364 3.75442 13.516C4.59255 14.8388 5.01162 15.5003 5.64209 15.7919C5.82723 15.8776 6.02268 15.9388 6.22353 15.974C6.90752 16.094 7.62056 15.7925 9.04663 15.1897C9.99558 14.7884 10.47 14.5879 10.808 14.2331C10.9086 14.1277 10.9992 14.0129 11.0786 13.8907C11.3457 13.4797 11.4316 12.9709 11.6035 11.9536L11.6182 11.8664C11.7957 10.8163 11.8844 10.2911 12.2735 9.80964C12.3279 9.74229 12.427 9.63534 12.49 9.57594C12.9403 9.15129 13.3377 9.05289 14.1324 8.85624C16.2728 8.32629 18.7271 8.32629 20.8676 8.85624C21.6623 9.05289 22.0597 9.15129 22.51 9.57594C22.573 9.63534 22.672 9.74229 22.7264 9.80964C23.1155 10.2911 23.2043 10.8163 23.3818 11.8664Z" stroke="#FEFEFE" stroke-width="1.5" stroke-linecap="square" stroke-linejoin="round"/>
</svg>
