<svg width="51" height="50" viewBox="0 0 51 50" fill="none" xmlns="http://www.w3.org/2000/svg">
<rect x="0.5" width="50" height="50" rx="25" fill="#888888"/>
<path d="M29.1579 15.5138L20.8419 19.5056C20.2019 19.8129 19.518 19.8898 18.8209 19.7337C18.3647 19.6315 18.1366 19.5804 17.9529 19.5594C15.6718 19.2989 14.25 21.1043 14.25 23.1804V24.3196C14.25 26.3957 15.6718 28.2011 17.9529 27.9406C18.1366 27.9196 18.3647 27.8685 18.8209 27.7664C19.518 27.6101 20.2019 27.6871 20.8419 27.9944L29.1579 31.9862C31.0668 32.9026 32.0212 33.3607 33.0855 33.0036C34.1496 32.6465 34.5149 31.8801 35.2455 30.3475C37.2515 26.139 37.2515 21.3611 35.2455 17.1524C34.5149 15.6198 34.1496 14.8535 33.0855 14.4964C32.0212 14.1392 31.0668 14.5974 29.1579 15.5138Z" stroke="#FEFEFE" stroke-width="1.5" stroke-linecap="round" stroke-linejoin="round"/>
<path d="M26.75 31.25V31.875C26.75 33.4801 26.75 34.2826 26.47 34.7358C26.0966 35.3399 25.414 35.6813 24.7066 35.6174C24.1761 35.5696 23.5341 35.088 22.25 34.125L20.75 33C19.5282 32.0836 19.25 31.5272 19.25 30V28.125" stroke="#FEFEFE" stroke-width="1.5" stroke-linecap="round" stroke-linejoin="round"/>
<path d="M19.875 27.5V20" stroke="#FEFEFE" stroke-width="1.5" stroke-linecap="round" stroke-linejoin="round"/>
</svg>
