<svg width="40" height="40" viewBox="0 0 40 40" fill="none" xmlns="http://www.w3.org/2000/svg">
<rect width="40" height="40" rx="20" fill="#FF9DA7"/>
<path d="M10.9668 18.002V23.002C10.9668 25.8304 10.9668 27.2446 11.8455 28.1233C12.7242 29.002 14.1384 29.002 16.9668 29.002H20.4668M28.9668 18.002V19.502" stroke="#FEFEFE" stroke-width="1.5" stroke-linecap="round"/>
<path d="M22.9668 26.502H29.9668M26.4668 30.002V23.002" stroke="#FEFEFE" stroke-width="1.5" stroke-linecap="round"/>
<path d="M14.9668 25.002H18.9668" stroke="#FEFEFE" stroke-width="1.5" stroke-linecap="round"/>
<path d="M18.1038 15.9232C17.8218 16.9429 16.7963 18.7018 14.8478 18.9567C13.1273 19.1817 11.8225 18.4299 11.4892 18.1155C11.1217 17.8606 10.2842 17.0448 10.0791 16.535C9.87395 16.0252 10.1132 14.9206 10.2842 14.4703L10.9674 12.4895C11.1342 11.9919 11.5247 10.8152 11.925 10.4172C12.3253 10.0192 13.1358 10.0019 13.4694 10.0019H20.4749C22.2781 10.0274 26.2209 9.98577 27.0003 10.0019C27.7797 10.018 28.2481 10.6721 28.3848 10.9525C29.5477 13.7728 30 15.3879 30 16.0762C29.8482 16.8104 29.22 18.1948 27.0003 18.8037C24.6933 19.4366 23.3854 18.2057 22.9751 17.7331M17.1552 17.7331C17.48 18.1325 18.4987 18.9363 19.9754 18.9567C21.4522 18.9771 22.7273 17.9455 23.1802 17.4272C23.3084 17.2743 23.5853 16.8205 23.8725 15.9232" stroke="#FEFEFE" stroke-width="1.5" stroke-linecap="round" stroke-linejoin="round"/>
</svg>
