<svg width="65" height="64" viewBox="0 0 65 64" fill="none" xmlns="http://www.w3.org/2000/svg">
<rect x="0.5" width="64" height="64" rx="32" fill="#FF9DA7"/>
<path d="M21.8333 34.6667H25.0264C25.4186 34.6667 25.8054 34.7551 26.1562 34.9249L28.8789 36.2422C29.2296 36.4119 29.6165 36.5002 30.0087 36.5002H31.3988C32.7433 36.5002 33.8333 37.555 33.8333 38.8561C33.8333 38.9086 33.7973 38.9549 33.7451 38.9693L30.3572 39.9061C29.7494 40.0741 29.0987 40.0155 28.5333 39.7419L25.6228 38.3338" stroke="#FEFEFE" stroke-width="2" stroke-linecap="round" stroke-linejoin="round"/>
<path d="M33.8333 38L39.9571 36.1186C41.0427 35.7803 42.2161 36.1814 42.8961 37.1231C43.3879 37.8039 43.1876 38.779 42.4713 39.1923L32.4505 44.974C31.8132 45.3418 31.0612 45.4315 30.3603 45.2235L21.8333 42.6932" stroke="#FEFEFE" stroke-width="2" stroke-linecap="round" stroke-linejoin="round"/>
<path d="M39.6059 22.0006C41.4465 25.1887 40.3541 29.2653 37.1661 31.1059C33.978 32.9466 29.9015 31.8542 28.0608 28.6662M39.6059 22.0006C37.7652 18.8126 33.6887 17.7202 30.5005 19.5609C27.3125 21.4015 26.2201 25.4781 28.0608 28.6662M39.6059 22.0006L28.0608 28.6662" stroke="#FEFEFE" stroke-width="2"/>
</svg>
